<svg xmlns="http://www.w3.org/2000/svg" version="1.1" xmlns:xlink="http://www.w3.org/1999/xlink" xmlns:svgjs="http://svgjs.dev/svgjs" width="1000" height="1125" viewBox="0 0 1000 1125"><g transform="matrix(1,0,0,1,1.7053025658242404e-13,0)"><svg viewBox="0 0 320 360" data-background-color="#ffffff" preserveAspectRatio="xMidYMid meet" height="1125" width="1000" xmlns="http://www.w3.org/2000/svg" xmlns:xlink="http://www.w3.org/1999/xlink"><g id="tight-bounds" transform="matrix(1,0,0,1,0,0)"><svg viewBox="0 0 320 360" height="360" width="320"><g><svg></svg></g><g><svg viewBox="0 0 320 360" height="360" width="320"><g><path xmlns="http://www.w3.org/2000/svg" d="M20.961 227.22l3.726 4.658-1.863-6.056c-0.466-2.795-3.726 0.466-1.863 1.398M25.153 224.425c1.397 2.329 2.795 4.658 2.795 6.987 0 3.261 2.795 4.658 5.123 5.589-3.261-3.726-5.124-13.974-7.918-12.576M204.017 26.929c7.918 0 15.371-0.932 23.756 0.931 20.495 5.124 37.729 15.371 49.374 29.811l32.606 52.169c1.397 13.042 4.192 27.482 3.726 43.319 3.261 0 2.795-4.658 6.521-5.59-3.726 9.316-5.59 20.961-6.521 34.469-2.329-7.453 0-18.632 0.466-24.687-3.261 5.124-5.124 1.397-5.124-0.932 0.466-3.726-1.397-3.261-2.795-4.658-5.124-4.658-8.384-9.782-12.11-17.7 2.329-6.055 2.795-14.905-4.658-19.563-2.329-1.397-5.124-3.726-6.521-7.453-1.863-5.124-5.124-11.179-4.193-19.097 0.466-2.329-6.987 5.124-11.179 1.863-18.166-12.576-36.332-27.016-58.224-39.127-11.645 0-20.029-4.192-24.221-9.316-3.726-4.658-0.932-10.713 4.658-11.179 3.261 0 6.987-0.932 9.782 0.932 0.466-1.863 2.329-4.192 4.657-4.192M157.904 16.215l0.932 0.466c4.658 0.932 6.987 7.453 12.11 5.124 0 3.261 0.466 6.521-0.466 8.85-1.397 3.726-5.59 3.726-8.85 3.726-31.208-1.863-49.374 11.179-68.471 22.358-5.124 3.261-10.713 5.59-14.906 9.782-20.029 18.632-41.921 35.866-47.045 70.335l-4.192 38.195c-0.466 4.192-5.124 8.384-4.192 13.508l3.26 22.824c-3.261-3.261-5.124 0.932-4.192 2.795 0.466 1.397 2.329 6.055 5.124 1.863 3.726 6.987 7.453 20.495 12.576 26.55 15.837 18.632 36.332 35.4 53.101 52.169 4.192-0.932 7.453-0.932 8.384-3.727 1.397 2.795-1.397 5.59-3.726 6.056 7.453 4.658 15.837 8.85 27.016 9.781 14.44 0.932 27.948 3.261 40.524 6.522 6.521-1.863 13.042-2.795 20.029-3.261 2.329 0 3.726-3.726 6.521-4.658l0.466-4.658c2.795 4.192 2.329-1.397 0.466-4.192 3.261 2.795 4.192 5.124 5.589 6.987 0-1.397 3.726-6.521 3.727-0.466l0.931-6.055c1.397-0.932 1.863 5.124 3.261 0.931 1.397-4.192 4.192-0.932 6.987-2.329-0.932 1.863-0.466 5.59 2.794 3.261l3.727-3.261c2.329 5.59 6.055 3.261 7.918 2.329 20.495-13.042 40.99-28.413 60.553-43.784l-0.466 6.055 2.329-7.453c2.329 2.329 4.192 0.466 5.124-0.931 2.795-4.658 6.521-9.316 12.577-13.508-7.453 20.029-16.303 35.866-27.482 48.908l-4.658 5.59c0 3.261-0.932 7.453-4.658 7.918-1.863 0.466-5.59-0.932-8.384 1.863-1.397 1.863 3.261 5.59-0.466 2.795-3.261-2.329-6.521 0-10.248 0.932-2.795 0.932 1.863 3.726 2.795 5.589 0.932 1.863 1.863 3.726 1.398 6.056l-5.124-5.59c-6.055 3.261-9.782 9.316-14.906 13.974-2.329 1.863-1.397 5.124-1.397 7.918-3.261 0-6.987-0.932-8.85 0.932-1.397 1.863-0.932 4.658-0.932 7.453-4.658-0.466-5.124-7.453-9.315-6.056-4.192 0.932-8.85 1.397-12.577 3.727 2.795 5.59-4.658 2.329-3.726 3.26-6.987-4.192-13.042-7.453-20.495-4.658-15.837-5.124-35.4-2.795-49.84-0.931 0-2.329 0.466-4.658-0.466-5.124-0.932 2.329-3.726 1.397-3.26 1.397-8.85-6.055-17.7-9.782-27.016-14.905-8.384 0.932-16.303-3.261-18.632-5.59-6.521-6.055-13.974-2.795-20.029-4.192-13.042-3.261-17.7-16.769-19.098-26.084-0.932-4.658-4.658-6.521-6.055-6.056-6.055-19.563-15.371-37.263-22.824-55.429-1.863-4.658-1.397-9.316-1.397-14.44 2.329 0.932 4.658 0.466 4.192-2.794-2.329-15.371-7.918-27.016-13.974-38.195 3.261-15.837 3.726-34.469 11.179-48.443 6.521-12.576 18.632-19.098 27.016-29.811 2.795-3.726 2.795-8.85 5.59-12.11 9.316-9.316 18.632-19.098 28.879-27.482 4.658-3.726 10.247 0 17.234-1.397 2.329-8.384 11.645-15.837 20.495-13.508 3.726 0.932 11.179-8.85 13.508-9.782 3.726-1.397 1.863 3.726 1.863 6.987 8.85-6.987 20.961-10.713 32.14-14.906" fill="#ec9131" fill-rule="nonzero" stroke="none" stroke-width="1" stroke-linecap="butt" stroke-linejoin="miter" stroke-miterlimit="10" stroke-dasharray="" stroke-dashoffset="0" font-family="none" font-weight="none" font-size="none" text-anchor="none" style="mix-blend-mode: normal" data-fill-palette-color="tertiary"></path></g><g transform="matrix(1,0,0,1,64,162.7959479015919)"><svg viewBox="0 0 192 34.40810419681621" height="34.40810419681621" width="192"><g><svg viewBox="0 0 192 34.40810419681621" height="34.40810419681621" width="192"><g><svg viewBox="0 0 192 34.40810419681621" height="34.40810419681621" width="192"><g><svg viewBox="0 0 192 34.40810419681621" height="34.40810419681621" width="192"><g id="textblocktransform"><svg viewBox="0 0 192 34.40810419681621" height="34.40810419681621" width="192" id="textblock"><g><svg viewBox="0 0 192 34.40810419681621" height="34.40810419681621" width="192"><g transform="matrix(1,0,0,1,0,0)"><svg width="192" viewBox="4.050000190734863 -36.70000076293945 207.27999877929688 37.150001525878906" height="34.40810419681621" data-palette-color="#ec9131"><path d="M15.95-36.55L15.95-36.55Q23.65-36.55 29.15-32.05L29.15-32.05Q31.85-29.85 33.4-26.23 34.95-22.6 34.95-18 34.95-13.4 33.4-9.8 31.85-6.2 29.15-4L29.15-4Q23.7 0.45 15.95 0.45L15.95 0.45Q9.75 0.45 7.35-1.25 4.95-2.95 4.95-6.55L4.95-6.55 5-30.95Q5-33.35 4.05-34.55L4.05-34.55Q9.7-36.55 15.95-36.55ZM15.95-3.3L15.95-3.3Q21.75-3.3 25.58-7.15 29.4-11 29.4-18 29.4-25 25.58-28.88 21.75-32.75 15.95-32.75L15.95-32.75Q13.1-32.75 10.35-31.9L10.35-31.9 10.25-6.4Q10.25-4.7 11.3-4 12.35-3.3 15.95-3.3ZM52.7-32.15L47.3-32.15 47.3-18.45 52.7-18.45Q56.7-18.45 58.77-20.23 60.85-22 60.85-25.25 60.85-28.5 58.77-30.33 56.7-32.15 52.7-32.15L52.7-32.15ZM64.45 0.45L64.45 0.45Q62.75 0.45 61.62-0.38 60.5-1.2 58.95-3.5L58.95-3.5 51.4-14.5 47.3-14.5 47.3-3.7Q47.3-1.9 48.7-1.3L48.7-1.3Q47.4 0.45 45.45 0.45L45.45 0.45Q42.05 0.45 42.05-3.75L42.05-3.75 42.05-31.8Q42.05-33.6 40.7-34.2L40.7-34.2Q42.1-36.15 44.85-36.15L44.85-36.15 52.9-36.15Q58.8-36.15 62.57-33.27 66.35-30.4 66.35-25.3L66.35-25.3Q66.35-21.25 63.9-18.6 61.45-15.95 57.35-15L57.35-15 64.85-4.75Q66.3-2.75 68.3-2.35L68.3-2.35Q66.95 0.45 64.45 0.45ZM112.24-29.55L112.24-29.55Q112.24-28 111.37-27.1 110.49-26.2 109.19-26.2 107.89-26.2 106.49-26.9L106.49-26.9Q106.79-27.8 106.79-28.55L106.79-28.55Q106.79-30.25 104.99-31.68 103.19-33.1 99.97-33.1 96.74-33.1 94.79-31.78 92.84-30.45 92.84-28.4 92.84-26.35 94.37-24.85 95.89-23.35 98.17-22.35 100.44-21.35 103.09-20.08 105.74-18.8 108.02-17.57 110.29-16.35 111.82-14.4 113.34-12.45 113.34-10.1L113.34-10.1Q113.34-5.55 109.37-2.55 105.39 0.45 99.77 0.45 94.14 0.45 90.42-1.93 86.69-4.3 86.69-7.95L86.69-7.95Q86.69-9.7 87.77-10.78 88.84-11.85 90.52-11.85 92.19-11.85 93.34-10.55L93.34-10.55Q92.19-9.55 92.19-7.73 92.19-5.9 94.22-4.55 96.24-3.2 99.74-3.2 103.24-3.2 105.67-4.9 108.09-6.6 108.09-8.88 108.09-11.15 105.97-12.8 103.84-14.45 100.84-15.68 97.84-16.9 94.82-18.3 91.79-19.7 89.67-21.95 87.54-24.2 87.54-27.1L87.54-27.1Q87.54-31.35 91.29-34.02 95.04-36.7 100.27-36.7 105.49-36.7 108.87-34.63 112.24-32.55 112.24-29.55ZM126.54-21.95L125.94-21.95 125.94-6.8Q125.94-5 126.62-4.23 127.29-3.45 128.84-3.45L128.84-3.45Q131.89-3.45 134.44-6L134.44-6Q135.54-5.8 135.54-4.2 135.54-2.6 133.27-1.07 130.99 0.45 127.67 0.45 124.34 0.45 122.52-1.28 120.69-3 120.69-6.4L120.69-6.4 120.69-21.95Q118.64-22 117.69-22.63 116.74-23.25 116.74-24.25 116.74-25.25 117.49-25.8L117.49-25.8Q118.89-25.6 120.14-25.6L120.14-25.6 120.69-25.6 120.69-28.9Q120.69-30.7 119.29-31.3L119.29-31.3Q120.49-33.05 122.44-33.05L122.44-33.05Q125.94-33.05 125.94-28.85L125.94-28.85 125.94-25.6 134.04-25.6Q134.34-25.15 134.34-24.7L134.34-24.7Q134.34-21.95 126.54-21.95L126.54-21.95ZM155.99-20.38Q153.89-23 150.76-23 147.64-23 145.99-20.7 144.34-18.4 144.34-14.1L144.34-14.1Q144.34-7.95 146.49-5.28 148.64-2.6 151.74-2.6 154.84-2.6 156.46-4.95 158.09-7.3 158.09-11.55L158.09-11.55Q158.09-17.75 155.99-20.38ZM139.04-12.83Q139.04-19.15 142.54-22.63 146.04-26.1 151.21-26.1 156.39-26.1 159.89-22.6 163.39-19.1 163.39-12.8 163.39-6.5 159.89-3.03 156.39 0.45 151.24 0.45 146.09 0.45 142.56-3.03 139.04-6.5 139.04-12.83ZM175.44-21.85L175.44-21.85 175.44-20.85Q177.44-26.1 182.29-26.1L182.29-26.1Q184.69-26.1 186.04-24.85 187.39-23.6 187.39-21.78 187.39-19.95 186.46-18.98 185.54-18 184.04-18L184.04-18Q183.99-18 182.79-18.15L182.79-18.15Q182.94-18.9 182.94-19.78 182.94-20.65 182.26-21.33 181.59-22 180.24-22 178.89-22 177.46-20.53 176.04-19.05 175.44-15.9L175.44-15.9 175.44-3.7Q175.44-1.9 176.84-1.3L176.84-1.3Q175.54 0.45 173.64 0.45L173.64 0.45Q170.24 0.45 170.24-3.75L170.24-3.75 170.24-21.9Q170.24-23.65 168.84-24.35L168.84-24.35Q170.14-26.1 172.04-26.1L172.04-26.1Q175.44-26.1 175.44-21.85ZM195.88-15L204.03-15.75Q205.98-15.9 205.98-18 205.98-20.1 204.86-21.48 203.73-22.85 201.68-22.85 199.63-22.85 197.96-20.8 196.28-18.75 195.88-15L195.88-15ZM195.73-12.35Q195.78-7.8 197.81-5.63 199.83-3.45 203.56-3.45 207.28-3.45 210.08-6.25L210.08-6.25Q210.93-5.8 210.93-4.7L210.93-4.7Q210.93-2.85 208.38-1.2 205.83 0.45 202.38 0.45L202.38 0.45Q196.98 0.45 193.68-2.78 190.38-6 190.38-11.95 190.38-17.9 193.98-22 197.58-26.1 202.53-26.1L202.53-26.1Q206.43-26.1 208.88-23.48 211.33-20.85 211.33-17.5L211.33-17.5Q211.33-15.05 210.06-13.9 208.78-12.75 205.83-12.7L205.83-12.7 195.73-12.35Z" opacity="1" transform="matrix(1,0,0,1,0,0)" fill="#ec9131" class="undefined-text-0" data-fill-palette-color="primary" id="text-0"></path></svg></g></svg></g></svg></g></svg></g><g></g></svg></g></svg></g></svg></g></svg></g><defs></defs></svg><rect width="320" height="360" fill="none" stroke="none" visibility="hidden"></rect></g></svg></g></svg>