<svg width="212" height="57" viewBox="0 0 212 57" fill="none" xmlns="http://www.w3.org/2000/svg">
<rect x="8.23301" y="3.97864" width="41.3772" height="47.0805" fill="#D9D9D9"/>
<path d="M69.3051 13.4567C69.2198 12.5973 68.8541 11.9297 68.2078 11.4538C67.5615 10.978 66.6843 10.7401 65.5764 10.7401C64.8235 10.7401 64.1879 10.8466 63.6694 11.0597C63.1509 11.2656 62.7532 11.5533 62.4762 11.9226C62.2063 12.2919 62.0714 12.7109 62.0714 13.1797C62.0572 13.5703 62.1389 13.9112 62.3164 14.2024C62.5011 14.4936 62.7532 14.7457 63.0728 14.9588C63.3924 15.1648 63.7617 15.3459 64.1808 15.5021C64.5998 15.6513 65.0472 15.7791 65.5231 15.8857L67.4833 16.3544C68.435 16.5675 69.3086 16.8516 70.1041 17.2067C70.8995 17.5618 71.5884 17.9986 72.1708 18.517C72.7532 19.0355 73.2042 19.6463 73.5238 20.3494C73.8505 21.0526 74.0174 21.8587 74.0245 22.7678C74.0174 24.103 73.6765 25.2607 73.0018 26.2408C72.3342 27.2138 71.3683 27.9702 70.1041 28.5099C68.847 29.0426 67.3306 29.3089 65.5551 29.3089C63.7937 29.3089 62.2596 29.0391 60.9528 28.4993C59.6531 27.9595 58.6374 27.1605 57.9059 26.1023C57.1815 25.0369 56.8015 23.7195 56.766 22.1499H61.2298C61.2795 22.8814 61.489 23.4922 61.8583 23.9822C62.2347 24.4652 62.7355 24.831 63.3605 25.0795C63.9926 25.321 64.7063 25.4418 65.5018 25.4418C66.283 25.4418 66.9613 25.3281 67.5366 25.1009C68.119 24.8736 68.57 24.5575 68.8896 24.1527C69.2092 23.7479 69.369 23.2827 69.369 22.7571C69.369 22.267 69.2234 21.8551 68.9322 21.5213C68.6481 21.1875 68.2291 20.9034 67.6751 20.669C67.1282 20.4347 66.457 20.2216 65.6616 20.0298L63.2859 19.4332C61.4464 18.9858 59.994 18.2862 58.9286 17.3345C57.8633 16.3828 57.3342 15.1009 57.3413 13.4886C57.3342 12.1676 57.6857 11.0135 58.396 10.0263C59.1133 9.03906 60.097 8.26847 61.347 7.71449C62.597 7.16051 64.0174 6.88352 65.6083 6.88352C67.2276 6.88352 68.641 7.16051 69.8484 7.71449C71.0629 8.26847 72.0075 9.03906 72.6822 10.0263C73.3569 11.0135 73.7049 12.157 73.7262 13.4567H69.3051ZM85.7459 12.6364V16.0455H75.8915V12.6364H85.7459ZM78.1287 8.71591H82.6671V23.9716C82.6671 24.3906 82.731 24.7173 82.8589 24.9517C82.9867 25.179 83.1643 25.3388 83.3915 25.4311C83.6259 25.5234 83.8958 25.5696 84.2012 25.5696C84.4143 25.5696 84.6273 25.5518 84.8404 25.5163C85.0535 25.4737 85.2168 25.4418 85.3305 25.4205L86.0442 28.7976C85.817 28.8686 85.4974 28.9503 85.0854 29.0426C84.6735 29.142 84.1728 29.2024 83.5833 29.2237C82.4895 29.2663 81.5307 29.1207 80.7069 28.7869C79.8901 28.4531 79.2545 27.9347 78.7999 27.2315C78.3454 26.5284 78.1216 25.6406 78.1287 24.5682V8.71591ZM95.9199 29.3196C94.2651 29.3196 92.834 28.968 91.6266 28.2649C90.4263 27.5547 89.4995 26.5675 88.8461 25.3033C88.1927 24.032 87.866 22.5582 87.866 20.8821C87.866 19.1918 88.1927 17.7145 88.8461 16.4503C89.4995 15.179 90.4263 14.1918 91.6266 13.4886C92.834 12.7784 94.2651 12.4233 95.9199 12.4233C97.5748 12.4233 99.0023 12.7784 100.203 13.4886C101.41 14.1918 102.34 15.179 102.994 16.4503C103.647 17.7145 103.974 19.1918 103.974 20.8821C103.974 22.5582 103.647 24.032 102.994 25.3033C102.34 26.5675 101.41 27.5547 100.203 28.2649C99.0023 28.968 97.5748 29.3196 95.9199 29.3196ZM95.9412 25.804C96.6941 25.804 97.3226 25.5909 97.8269 25.1648C98.3312 24.7315 98.7111 24.142 98.9668 23.3963C99.2296 22.6506 99.361 21.8018 99.361 20.8501C99.361 19.8984 99.2296 19.0497 98.9668 18.304C98.7111 17.5582 98.3312 16.9687 97.8269 16.5355C97.3226 16.1023 96.6941 15.8857 95.9412 15.8857C95.1813 15.8857 94.5421 16.1023 94.0236 16.5355C93.5123 16.9687 93.1252 17.5582 92.8624 18.304C92.6067 19.0497 92.4789 19.8984 92.4789 20.8501C92.4789 21.8018 92.6067 22.6506 92.8624 23.3963C93.1252 24.142 93.5123 24.7315 94.0236 25.1648C94.5421 25.5909 95.1813 25.804 95.9412 25.804ZM106.925 29V12.6364H111.325V15.4915H111.495C111.794 14.4759 112.294 13.7088 112.997 13.1903C113.7 12.6648 114.51 12.402 115.426 12.402C115.654 12.402 115.899 12.4162 116.161 12.4446C116.424 12.473 116.655 12.5121 116.854 12.5618V16.5888C116.641 16.5249 116.346 16.468 115.97 16.4183C115.593 16.3686 115.249 16.3438 114.936 16.3438C114.269 16.3438 113.672 16.4893 113.147 16.7805C112.628 17.0646 112.216 17.4624 111.911 17.9737C111.612 18.4851 111.463 19.0746 111.463 19.7422V29H106.925ZM125.896 29.3196C124.213 29.3196 122.764 28.9787 121.549 28.2969C120.342 27.608 119.412 26.6349 118.758 25.3778C118.105 24.1136 117.778 22.6186 117.778 20.8928C117.778 19.2095 118.105 17.7322 118.758 16.4609C119.412 15.1896 120.331 14.1989 121.517 13.4886C122.711 12.7784 124.11 12.4233 125.715 12.4233C126.794 12.4233 127.799 12.5973 128.73 12.9453C129.667 13.2862 130.484 13.8011 131.18 14.4901C131.883 15.179 132.43 16.0455 132.821 17.0895C133.211 18.1264 133.407 19.3409 133.407 20.733V21.9794H119.589V19.1669H129.135C129.135 18.5135 128.993 17.9347 128.708 17.4304C128.424 16.9261 128.03 16.532 127.526 16.2479C127.029 15.9567 126.45 15.8111 125.789 15.8111C125.101 15.8111 124.49 15.9709 123.957 16.2905C123.431 16.603 123.02 17.0256 122.721 17.5582C122.423 18.0838 122.27 18.6697 122.263 19.3161V21.9901C122.263 22.7997 122.412 23.4993 122.711 24.0888C123.016 24.6783 123.446 25.1328 124 25.4524C124.554 25.772 125.211 25.9318 125.971 25.9318C126.475 25.9318 126.936 25.8608 127.355 25.7188C127.775 25.5767 128.133 25.3636 128.431 25.0795C128.73 24.7955 128.957 24.4474 129.113 24.0355L133.311 24.3125C133.098 25.321 132.661 26.2017 132 26.9545C131.347 27.7003 130.502 28.2827 129.465 28.7017C128.435 29.1136 127.245 29.3196 125.896 29.3196ZM150.918 12.6364V14.767H142.438V12.6364H150.918ZM144.91 8.71591H147.424V24.3125C147.424 25.0227 147.527 25.5554 147.733 25.9105C147.946 26.2585 148.216 26.4929 148.542 26.6136C148.876 26.7273 149.228 26.7841 149.597 26.7841C149.874 26.7841 150.101 26.7699 150.279 26.7415C150.457 26.706 150.599 26.6776 150.705 26.6562L151.216 28.9148C151.046 28.9787 150.808 29.0426 150.503 29.1065C150.197 29.1776 149.81 29.2131 149.341 29.2131C148.631 29.2131 147.935 29.0604 147.253 28.755C146.579 28.4496 146.018 27.9844 145.57 27.3594C145.13 26.7344 144.91 25.946 144.91 24.9943V8.71591ZM161.385 29.3409C159.808 29.3409 158.448 28.9929 157.305 28.2969C156.169 27.5938 155.291 26.6136 154.673 25.3565C154.063 24.0923 153.757 22.6222 153.757 20.946C153.757 19.2699 154.063 17.7926 154.673 16.5142C155.291 15.2287 156.151 14.2273 157.252 13.5099C158.36 12.7855 159.652 12.4233 161.129 12.4233C161.982 12.4233 162.823 12.5653 163.654 12.8494C164.485 13.1335 165.242 13.5952 165.923 14.2344C166.605 14.8665 167.149 15.7045 167.553 16.7486C167.958 17.7926 168.161 19.0781 168.161 20.6051V21.6705H155.547V19.4972H165.604C165.604 18.5739 165.419 17.75 165.05 17.0256C164.688 16.3011 164.169 15.7294 163.495 15.3104C162.827 14.8913 162.039 14.6818 161.129 14.6818C160.128 14.6818 159.262 14.9304 158.53 15.4276C157.806 15.9176 157.248 16.5568 156.857 17.3452C156.467 18.1335 156.272 18.9787 156.272 19.8807V21.3295C156.272 22.5653 156.485 23.6129 156.911 24.4723C157.344 25.3246 157.944 25.9744 158.711 26.4219C159.478 26.8622 160.37 27.0824 161.385 27.0824C162.046 27.0824 162.642 26.9901 163.175 26.8054C163.715 26.6136 164.18 26.3295 164.571 25.9531C164.961 25.5696 165.263 25.0937 165.476 24.5256L167.905 25.2074C167.649 26.0312 167.22 26.7557 166.616 27.3807C166.012 27.9986 165.267 28.4815 164.379 28.8295C163.491 29.1705 162.493 29.3409 161.385 29.3409ZM183.576 16.3011L181.318 16.9403C181.176 16.5639 180.966 16.1982 180.689 15.843C180.419 15.4808 180.05 15.1825 179.581 14.9482C179.112 14.7138 178.512 14.5966 177.781 14.5966C176.779 14.5966 175.945 14.8274 175.277 15.2891C174.617 15.7436 174.286 16.3224 174.286 17.0256C174.286 17.6506 174.514 18.1442 174.968 18.5064C175.423 18.8686 176.133 19.1705 177.099 19.4119L179.528 20.0085C180.991 20.3636 182.081 20.907 182.798 21.6385C183.516 22.3629 183.874 23.2969 183.874 24.4403C183.874 25.3778 183.605 26.2159 183.065 26.9545C182.532 27.6932 181.786 28.2756 180.828 28.7017C179.869 29.1278 178.754 29.3409 177.482 29.3409C175.813 29.3409 174.432 28.9787 173.338 28.2543C172.245 27.5298 171.552 26.4716 171.261 25.0795L173.647 24.483C173.874 25.3636 174.304 26.0241 174.936 26.4645C175.575 26.9048 176.41 27.125 177.44 27.125C178.612 27.125 179.542 26.8764 180.231 26.3793C180.927 25.875 181.275 25.2713 181.275 24.5682C181.275 24 181.076 23.5241 180.678 23.1406C180.281 22.75 179.67 22.4588 178.846 22.267L176.119 21.6278C174.62 21.2727 173.519 20.7223 172.816 19.9766C172.12 19.2237 171.772 18.2827 171.772 17.1534C171.772 16.2301 172.031 15.4134 172.55 14.7031C173.075 13.9929 173.789 13.4354 174.691 13.0305C175.6 12.6257 176.63 12.4233 177.781 12.4233C179.4 12.4233 180.671 12.7784 181.595 13.4886C182.525 14.1989 183.186 15.1364 183.576 16.3011ZM194.776 12.6364V14.767H186.295V12.6364H194.776ZM188.767 8.71591H191.281V24.3125C191.281 25.0227 191.384 25.5554 191.59 25.9105C191.803 26.2585 192.073 26.4929 192.4 26.6136C192.734 26.7273 193.085 26.7841 193.455 26.7841C193.732 26.7841 193.959 26.7699 194.136 26.7415C194.314 26.706 194.456 26.6776 194.563 26.6562L195.074 28.9148C194.903 28.9787 194.665 29.0426 194.36 29.1065C194.055 29.1776 193.668 29.2131 193.199 29.2131C192.489 29.2131 191.793 29.0604 191.111 28.755C190.436 28.4496 189.875 27.9844 189.428 27.3594C188.987 26.7344 188.767 25.946 188.767 24.9943V8.71591Z" fill="white"/>
<path d="M58.9425 45.6289V36.9016H61.8914C62.576 36.9016 63.1357 37.0252 63.5704 37.2724C64.0079 37.5167 64.3317 37.8477 64.5419 38.2653C64.7522 38.6829 64.8573 39.1488 64.8573 39.663C64.8573 40.1772 64.7522 40.6445 64.5419 41.065C64.3346 41.4854 64.0135 41.8207 63.5789 42.0707C63.1442 42.3178 62.5874 42.4414 61.9084 42.4414H59.7948V41.5039H61.8743C62.3431 41.5039 62.7195 41.4229 63.0036 41.261C63.2877 41.0991 63.4937 40.8803 63.6215 40.6048C63.7522 40.3263 63.8175 40.0124 63.8175 39.663C63.8175 39.3136 63.7522 39.0011 63.6215 38.7255C63.4937 38.4499 63.2863 38.234 62.9993 38.0778C62.7124 37.9187 62.3317 37.8391 61.8573 37.8391H59.9993V45.6289H58.9425ZM66.4233 45.6289V39.0835H67.3949V40.0721H67.4631C67.5824 39.7482 67.7983 39.4854 68.1108 39.2837C68.4233 39.082 68.7756 38.9812 69.1677 38.9812C69.2415 38.9812 69.3338 38.9826 69.4446 38.9854C69.5554 38.9883 69.6392 38.9925 69.6961 38.9982V40.021C69.662 40.0124 69.5839 39.9996 69.4617 39.9826C69.3424 39.9627 69.216 39.9528 69.0824 39.9528C68.7642 39.9528 68.4802 40.0195 68.2302 40.1531C67.983 40.2837 67.787 40.4656 67.6421 40.6985C67.5 40.9286 67.429 41.1914 67.429 41.4869V45.6289H66.4233ZM73.3481 45.7653C72.7571 45.7653 72.2387 45.6246 71.7927 45.3434C71.3495 45.0621 71.0029 44.6687 70.7529 44.163C70.5057 43.6573 70.3821 43.0664 70.3821 42.3903C70.3821 41.7085 70.5057 41.1133 70.7529 40.6048C71.0029 40.0962 71.3495 39.7013 71.7927 39.4201C72.2387 39.1388 72.7571 38.9982 73.3481 38.9982C73.939 38.9982 74.456 39.1388 74.8992 39.4201C75.3452 39.7013 75.6918 40.0962 75.939 40.6048C76.189 41.1133 76.314 41.7085 76.314 42.3903C76.314 43.0664 76.189 43.6573 75.939 44.163C75.6918 44.6687 75.3452 45.0621 74.8992 45.3434C74.456 45.6246 73.939 45.7653 73.3481 45.7653ZM73.3481 44.8619C73.7969 44.8619 74.1662 44.7468 74.456 44.5167C74.7458 44.2866 74.9603 43.984 75.0995 43.609C75.2387 43.234 75.3083 42.8278 75.3083 42.3903C75.3083 41.9528 75.2387 41.5451 75.0995 41.1673C74.9603 40.7894 74.7458 40.484 74.456 40.2511C74.1662 40.0181 73.7969 39.9016 73.3481 39.9016C72.8992 39.9016 72.5299 40.0181 72.2401 40.2511C71.9503 40.484 71.7358 40.7894 71.5966 41.1673C71.4574 41.5451 71.3878 41.9528 71.3878 42.3903C71.3878 42.8278 71.4574 43.234 71.5966 43.609C71.7358 43.984 71.9503 44.2866 72.2401 44.5167C72.5299 44.7468 72.8992 44.8619 73.3481 44.8619ZM82.967 39.0835L80.5466 45.6289H79.5238L77.1034 39.0835H78.1943L80.0011 44.2994H80.0693L81.8761 39.0835H82.967ZM84.2944 45.6289V39.0835H85.3001V45.6289H84.2944ZM84.8058 37.9925C84.6098 37.9925 84.4407 37.9258 84.2987 37.7923C84.1595 37.6587 84.0899 37.4982 84.0899 37.3107C84.0899 37.1232 84.1595 36.9627 84.2987 36.8292C84.4407 36.6957 84.6098 36.6289 84.8058 36.6289C85.0018 36.6289 85.1694 36.6957 85.3086 36.8292C85.4507 36.9627 85.5217 37.1232 85.5217 37.3107C85.5217 37.4982 85.4507 37.6587 85.3086 37.7923C85.1694 37.9258 85.0018 37.9925 84.8058 37.9925ZM89.6137 45.7653C89.0682 45.7653 88.5867 45.6275 88.1691 45.3519C87.7515 45.0735 87.4248 44.6815 87.189 44.1758C86.9532 43.6673 86.8353 43.0664 86.8353 42.3732C86.8353 41.6857 86.9532 41.0891 87.189 40.5835C87.4248 40.0778 87.7529 39.6871 88.1733 39.4116C88.5938 39.136 89.0796 38.9982 89.6307 38.9982C90.0569 38.9982 90.3935 39.0692 90.6407 39.2113C90.8907 39.3505 91.081 39.5096 91.2117 39.6886C91.3452 39.8647 91.4489 40.0096 91.5228 40.1232H91.608V36.9016H92.6137V45.6289H91.6421V44.6232H91.5228C91.4489 44.7425 91.3438 44.8931 91.2074 45.0749C91.0711 45.2539 90.8765 45.4144 90.6236 45.5565C90.3708 45.6957 90.0341 45.7653 89.6137 45.7653ZM89.75 44.8619C90.1535 44.8619 90.4944 44.7567 90.7728 44.5465C91.0512 44.3335 91.2628 44.0394 91.4077 43.6644C91.5526 43.2866 91.625 42.8505 91.625 42.3562C91.625 41.8675 91.554 41.44 91.412 41.0735C91.2699 40.7042 91.0597 40.4173 90.7813 40.2127C90.5029 40.0053 90.1591 39.9016 89.75 39.9016C89.3239 39.9016 88.9688 40.011 88.6847 40.2298C88.4035 40.4457 88.1918 40.7397 88.0498 41.1119C87.9106 41.4812 87.841 41.896 87.841 42.3562C87.841 42.8221 87.912 43.2454 88.054 43.6261C88.1989 44.0039 88.412 44.305 88.6932 44.5295C88.9773 44.7511 89.3296 44.8619 89.75 44.8619ZM97.3395 45.7653C96.7088 45.7653 96.1648 45.6261 95.7074 45.3477C95.2529 45.0664 94.902 44.6744 94.6549 44.1715C94.4106 43.6658 94.2884 43.0778 94.2884 42.4073C94.2884 41.7369 94.4106 41.146 94.6549 40.6346C94.902 40.1204 95.2458 39.7198 95.6861 39.4329C96.1293 39.1431 96.6463 38.9982 97.2373 38.9982C97.5782 38.9982 97.9148 39.055 98.2472 39.1687C98.5796 39.2823 98.8821 39.467 99.1549 39.7227C99.4276 39.9755 99.6449 40.3107 99.8069 40.7283C99.9688 41.146 100.05 41.6602 100.05 42.271V42.6971H95.0043V41.8278H99.027C99.027 41.4585 98.9532 41.1289 98.8054 40.8391C98.6606 40.5494 98.4532 40.3207 98.1833 40.1531C97.9162 39.9854 97.6009 39.9016 97.2373 39.9016C96.8367 39.9016 96.4901 40.0011 96.1975 40.1999C95.9077 40.396 95.6847 40.6516 95.5285 40.967C95.3722 41.2823 95.2941 41.6204 95.2941 41.9812V42.5607C95.2941 43.055 95.3793 43.4741 95.5498 43.8178C95.7231 44.1587 95.9631 44.4187 96.2699 44.5977C96.5767 44.7738 96.9333 44.8619 97.3395 44.8619C97.6037 44.8619 97.8424 44.8249 98.0554 44.7511C98.2714 44.6744 98.4574 44.5607 98.6137 44.4102C98.7699 44.2567 98.8907 44.0664 98.9759 43.8391L99.9475 44.1119C99.8452 44.4414 99.6733 44.7312 99.4319 44.9812C99.1904 45.2283 98.8921 45.4215 98.537 45.5607C98.1819 45.6971 97.7827 45.7653 97.3395 45.7653ZM107.614 45.7653C107.023 45.7653 106.504 45.6246 106.058 45.3434C105.615 45.0621 105.269 44.6687 105.019 44.163C104.771 43.6573 104.648 43.0664 104.648 42.3903C104.648 41.7085 104.771 41.1133 105.019 40.6048C105.269 40.0962 105.615 39.7013 106.058 39.4201C106.504 39.1388 107.023 38.9982 107.614 38.9982C108.205 38.9982 108.722 39.1388 109.165 39.4201C109.611 39.7013 109.957 40.0962 110.205 40.6048C110.455 41.1133 110.58 41.7085 110.58 42.3903C110.58 43.0664 110.455 43.6573 110.205 44.163C109.957 44.6687 109.611 45.0621 109.165 45.3434C108.722 45.6246 108.205 45.7653 107.614 45.7653ZM107.614 44.8619C108.063 44.8619 108.432 44.7468 108.722 44.5167C109.011 44.2866 109.226 43.984 109.365 43.609C109.504 43.234 109.574 42.8278 109.574 42.3903C109.574 41.9528 109.504 41.5451 109.365 41.1673C109.226 40.7894 109.011 40.484 108.722 40.2511C108.432 40.0181 108.063 39.9016 107.614 39.9016C107.165 39.9016 106.795 40.0181 106.506 40.2511C106.216 40.484 106.001 40.7894 105.862 41.1673C105.723 41.5451 105.653 41.9528 105.653 42.3903C105.653 42.8278 105.723 43.234 105.862 43.609C106.001 43.984 106.216 44.2866 106.506 44.5167C106.795 44.7468 107.165 44.8619 107.614 44.8619ZM116.24 42.9528V39.0835H117.245V45.6289H116.24V44.521H116.172C116.018 44.8533 115.78 45.136 115.456 45.369C115.132 45.5991 114.723 45.7141 114.228 45.7141C113.819 45.7141 113.456 45.6246 113.137 45.4457C112.819 45.2638 112.569 44.9911 112.387 44.6275C112.206 44.261 112.115 43.7994 112.115 43.2425V39.0835H113.12V43.1744C113.12 43.6516 113.254 44.0323 113.521 44.3164C113.791 44.6005 114.135 44.7425 114.552 44.7425C114.802 44.7425 115.057 44.6786 115.315 44.5508C115.576 44.4229 115.795 44.2269 115.971 43.9627C116.15 43.6985 116.24 43.3619 116.24 42.9528ZM119.087 45.6289V39.0835H120.059V40.0721H120.127C120.246 39.7482 120.462 39.4854 120.775 39.2837C121.087 39.082 121.44 38.9812 121.832 38.9812C121.906 38.9812 121.998 38.9826 122.109 38.9854C122.22 38.9883 122.303 38.9925 122.36 38.9982V40.021C122.326 40.0124 122.248 39.9996 122.126 39.9826C122.006 39.9627 121.88 39.9528 121.746 39.9528C121.428 39.9528 121.144 40.0195 120.894 40.1531C120.647 40.2837 120.451 40.4656 120.306 40.6985C120.164 40.9286 120.093 41.1914 120.093 41.4869V45.6289H119.087ZM131.564 40.5494L130.66 40.805C130.603 40.6545 130.52 40.5082 130.409 40.3661C130.301 40.2212 130.153 40.1019 129.966 40.0082C129.778 39.9144 129.538 39.8675 129.245 39.8675C128.845 39.8675 128.511 39.9599 128.244 40.1445C127.98 40.3263 127.848 40.5579 127.848 40.8391C127.848 41.0891 127.939 41.2866 128.12 41.4315C128.302 41.5763 128.586 41.6971 128.973 41.7937L129.944 42.0323C130.53 42.1744 130.966 42.3917 131.253 42.6843C131.539 42.9741 131.683 43.3477 131.683 43.805C131.683 44.18 131.575 44.5153 131.359 44.8107C131.146 45.1062 130.848 45.3391 130.464 45.5096C130.081 45.68 129.635 45.7653 129.126 45.7653C128.458 45.7653 127.906 45.6204 127.468 45.3306C127.031 45.0408 126.754 44.6175 126.637 44.0607L127.592 43.8221C127.683 44.1744 127.855 44.4386 128.108 44.6147C128.363 44.7908 128.697 44.8789 129.109 44.8789C129.578 44.8789 129.95 44.7795 130.226 44.5806C130.504 44.3789 130.643 44.1374 130.643 43.8562C130.643 43.6289 130.564 43.4386 130.405 43.2852C130.245 43.1289 130.001 43.0124 129.672 42.9357L128.581 42.68C127.981 42.538 127.541 42.3178 127.26 42.0195C126.981 41.7184 126.842 41.342 126.842 40.8903C126.842 40.521 126.946 40.1942 127.153 39.9102C127.363 39.6261 127.649 39.4031 128.01 39.2411C128.373 39.0792 128.785 38.9982 129.245 38.9982C129.893 38.9982 130.402 39.1403 130.771 39.4244C131.143 39.7085 131.407 40.0835 131.564 40.5494ZM135.941 45.7653C135.31 45.7653 134.766 45.6261 134.309 45.3477C133.854 45.0664 133.504 44.6744 133.256 44.1715C133.012 43.6658 132.89 43.0778 132.89 42.4073C132.89 41.7369 133.012 41.146 133.256 40.6346C133.504 40.1204 133.847 39.7198 134.288 39.4329C134.731 39.1431 135.248 38.9982 135.839 38.9982C136.18 38.9982 136.516 39.055 136.849 39.1687C137.181 39.2823 137.484 39.467 137.756 39.7227C138.029 39.9755 138.246 40.3107 138.408 40.7283C138.57 41.146 138.651 41.6602 138.651 42.271V42.6971H133.606V41.8278H137.629C137.629 41.4585 137.555 41.1289 137.407 40.8391C137.262 40.5494 137.055 40.3207 136.785 40.1531C136.518 39.9854 136.202 39.9016 135.839 39.9016C135.438 39.9016 135.092 40.0011 134.799 40.1999C134.509 40.396 134.286 40.6516 134.13 40.967C133.974 41.2823 133.896 41.6204 133.896 41.9812V42.5607C133.896 43.055 133.981 43.4741 134.151 43.8178C134.325 44.1587 134.565 44.4187 134.871 44.5977C135.178 44.7738 135.535 44.8619 135.941 44.8619C136.205 44.8619 136.444 44.8249 136.657 44.7511C136.873 44.6744 137.059 44.5607 137.215 44.4102C137.371 44.2567 137.492 44.0664 137.577 43.8391L138.549 44.1119C138.447 44.4414 138.275 44.7312 138.033 44.9812C137.792 45.2283 137.494 45.4215 137.139 45.5607C136.783 45.6971 136.384 45.7653 135.941 45.7653ZM140.181 45.6289V39.0835H141.153V40.0721H141.221C141.34 39.7482 141.556 39.4854 141.869 39.2837C142.181 39.082 142.533 38.9812 142.925 38.9812C142.999 38.9812 143.092 38.9826 143.202 38.9854C143.313 38.9883 143.397 38.9925 143.454 38.9982V40.021C143.42 40.0124 143.342 39.9996 143.22 39.9826C143.1 39.9627 142.974 39.9528 142.84 39.9528C142.522 39.9528 142.238 40.0195 141.988 40.1531C141.741 40.2837 141.545 40.4656 141.4 40.6985C141.258 40.9286 141.187 41.1914 141.187 41.4869V45.6289H140.181ZM150.197 39.0835L147.777 45.6289H146.754L144.334 39.0835H145.425L147.232 44.2994H147.3L149.107 39.0835H150.197ZM151.525 45.6289V39.0835H152.531V45.6289H151.525ZM152.036 37.9925C151.84 37.9925 151.671 37.9258 151.529 37.7923C151.39 37.6587 151.32 37.4982 151.32 37.3107C151.32 37.1232 151.39 36.9627 151.529 36.8292C151.671 36.6957 151.84 36.6289 152.036 36.6289C152.232 36.6289 152.4 36.6957 152.539 36.8292C152.681 36.9627 152.752 37.1232 152.752 37.3107C152.752 37.4982 152.681 37.6587 152.539 37.7923C152.4 37.9258 152.232 37.9925 152.036 37.9925ZM157.032 45.7653C156.418 45.7653 155.89 45.6204 155.446 45.3306C155.003 45.0408 154.662 44.6417 154.424 44.1332C154.185 43.6246 154.066 43.0437 154.066 42.3903C154.066 41.7255 154.188 41.1388 154.432 40.6303C154.679 40.119 155.023 39.7198 155.463 39.4329C155.907 39.1431 156.424 38.9982 157.015 38.9982C157.475 38.9982 157.89 39.0835 158.259 39.2539C158.628 39.4244 158.931 39.663 159.167 39.9698C159.402 40.2766 159.549 40.6346 159.606 41.0437H158.6C158.523 40.7454 158.353 40.4812 158.088 40.2511C157.827 40.0181 157.475 39.9016 157.032 39.9016C156.64 39.9016 156.296 40.0039 156 40.2085C155.708 40.4102 155.479 40.6957 155.314 41.065C155.152 41.4315 155.071 41.8619 155.071 42.3562C155.071 42.8619 155.151 43.3022 155.31 43.6772C155.472 44.0522 155.699 44.3434 155.992 44.5508C156.287 44.7582 156.634 44.8619 157.032 44.8619C157.293 44.8619 157.53 44.8164 157.743 44.7255C157.956 44.6346 158.137 44.5039 158.284 44.3335C158.432 44.163 158.537 43.9585 158.6 43.7198H159.606C159.549 44.1062 159.408 44.4542 159.184 44.7638C158.962 45.0707 158.668 45.315 158.302 45.4968C157.938 45.6758 157.515 45.7653 157.032 45.7653ZM163.82 45.7653C163.189 45.7653 162.645 45.6261 162.188 45.3477C161.733 45.0664 161.383 44.6744 161.135 44.1715C160.891 43.6658 160.769 43.0778 160.769 42.4073C160.769 41.7369 160.891 41.146 161.135 40.6346C161.383 40.1204 161.726 39.7198 162.167 39.4329C162.61 39.1431 163.127 38.9982 163.718 38.9982C164.059 38.9982 164.395 39.055 164.728 39.1687C165.06 39.2823 165.363 39.467 165.635 39.7227C165.908 39.9755 166.125 40.3107 166.287 40.7283C166.449 41.146 166.53 41.6602 166.53 42.271V42.6971H161.485V41.8278H165.508C165.508 41.4585 165.434 41.1289 165.286 40.8391C165.141 40.5494 164.934 40.3207 164.664 40.1531C164.397 39.9854 164.081 39.9016 163.718 39.9016C163.317 39.9016 162.971 40.0011 162.678 40.1999C162.388 40.396 162.165 40.6516 162.009 40.967C161.853 41.2823 161.775 41.6204 161.775 41.9812V42.5607C161.775 43.055 161.86 43.4741 162.03 43.8178C162.204 44.1587 162.444 44.4187 162.75 44.5977C163.057 44.7738 163.414 44.8619 163.82 44.8619C164.084 44.8619 164.323 44.8249 164.536 44.7511C164.752 44.6744 164.938 44.5607 165.094 44.4102C165.25 44.2567 165.371 44.0664 165.456 43.8391L166.428 44.1119C166.326 44.4414 166.154 44.7312 165.912 44.9812C165.671 45.2283 165.373 45.4215 165.017 45.5607C164.662 45.6971 164.263 45.7653 163.82 45.7653Z" fill="white"/>
</svg>
